<svg xmlns="http://www.w3.org/2000/svg" xml:space="preserve" width="1313.76" height="1047.98" viewBox="0 0 347.6 277.28"><g transform="translate(62.96 -.06)"><path d="M35.68 277.14c-1.45-.07-2.12-.21-2.38-.52-.28-.33-.38-2.67-.48-10.77l-.14-10.34-2.8-3.97a312 312 0 0 1-3.75-5.43c-.53-.8-1.83-2.72-2.9-4.26l-8.11-11.88c-8.06-11.76-9.58-14.1-9.5-14.67.07-.52.26-.54 6.16-.6 4.45-.05 6.26.02 6.72.26.57.3 1.83 2.1 5.31 7.6.6.95 1.38 2.14 1.73 2.65 1.66 2.4 5.25 7.74 6.75 10.04a270 270 0 0 0 5.75 8.39c.25.3.72.69 1.03.85.5.25.66.18 1.22-.56.35-.47.8-1.16 1-1.52.18-.36 1.15-1.88 2.15-3.38 1-1.49 1.81-2.79 1.81-2.88 0-.1.48-.8 1.06-1.58.58-.77 1.06-1.45 1.06-1.52 0-.14 6.28-9.66 7.35-11.15.42-.58.98-1.47 1.25-1.98.82-1.6 3.05-4.62 3.65-4.95.87-.49 12.45-.47 12.85.02.23.27.04.73-.83 2.02a212.94 212.94 0 0 1-4.83 7.15 901 901 0 0 0-9.39 13.76c-.36.56-1.3 1.95-2.1 3.09l-2.43 3.52-3.13 4.5c-2.85 4.07-3.4 4.9-4.14 6.3l-.63 1.18v9.82c0 5.44-.12 9.98-.25 10.2q-.64.98-9.06.6m46.48 0a3.5 3.5 0 0 1-1.39-.39c-.24-.2-.33-1.57-.33-5.25 0-4.17.07-5.04.42-5.4.36-.36 2.35-.41 17.4-.45 9.33-.03 18.4-.07 20.15-.1 6.14-.07 7.04-.82 7.23-5.96.2-5.5-.32-7.24-2.47-8.32-1-.5-1.76-.53-15.87-.69-16.32-.18-16.2-.16-19.8-1.9a12 12 0 0 1-6.56-8.65c-.4-2.1-.43-11.8-.03-14.33.6-3.8 2.93-7.14 6.32-9.04 3.37-1.9 2.81-1.85 26.51-1.96 19.75-.1 21.3-.07 21.76.35.46.41.5.89.5 5.18 0 5.93.2 5.64-4 5.85-1.65.08-10.27.16-19.15.19s-16.44.1-16.8.19c-1.28.3-2.54 1.1-2.89 1.84-.48 1.04-.67 5.67-.33 7.86.32 2.02.89 2.86 2.43 3.57.8.37 2.92.45 16 .58 14.1.15 15.2.2 16.97.7 3.53 1 5.9 2.78 7.6 5.67 1.5 2.55 2.17 7.4 1.95 14.12-.2 6.56-1 9.25-3.6 12.09-2.15 2.35-5.12 3.66-9.42 4.16-2.25.27-40.1.34-42.6.09m92.34 0c-1.2-.3-1.19-.16-1.2-10.49 0-5.81-.1-10.2-.26-10.75-.15-.5-.83-1.72-1.52-2.7-2.36-3.36-7.04-10.13-9.47-13.7-2.4-3.54-5.23-7.63-6.65-9.63-.41-.57-.98-1.43-1.27-1.9-.3-.48-1.18-1.8-1.97-2.94-3.1-4.45-3.62-5.22-4.62-6.8-1.5-2.35-1.72-2.83-1.56-3.26.12-.32 1.16-.36 6.48-.3l6.34.09.7.83c.4.45 1.9 2.65 3.34 4.9a515 515 0 0 0 8.49 12.79 169 169 0 0 1 2.38 3.52c.15.25 1.38 2.15 2.75 4.22 1.71 2.6 2.63 3.77 2.97 3.77.52 0 1.03-.65 3.53-4.55a1451 1451 0 0 1 13.94-21.16c1.42-2.14 2.81-4.01 3.1-4.17.33-.18 2.77-.28 6.46-.28 4.84 0 6 .07 6.26.38.4.48.22.84-2.1 4.12-.97 1.38-2.55 3.7-3.51 5.16-.96 1.45-2.37 3.53-3.13 4.63a1654 1654 0 0 0-8.24 11.9c-.85 1.24-2.18 3.14-2.95 4.24l-3.48 5.02-2.89 4.19-.8 1.15-.15 10.62c-.09 5.85-.17 10.66-.2 10.69-.5.5-9.04.84-10.77.41m49.44-.06a2 2 0 0 1-.75-.53c-.1-.16-.18-12.97-.17-28.47.01-21.74.1-28.44.35-29.3a6.3 6.3 0 0 1 4.15-3.86c1.76-.37 10.95-.38 12.3 0 1.95.54 3.23 2.16 9.08 11.48l5.5 8.73c4.25 6.71 8.7 13.8 12 19.08 4.76 7.62 5.93 9.37 6.27 9.37.18 0 .4-.27.49-.6s.16-11.15.16-24.06c0-20.97.05-23.5.42-23.88.35-.35 1.22-.41 5.42-.41 4.68 0 5.05.03 5.55.53.53.54.53.72.46 29.04-.08 31.55.04 29.5-1.79 31.23-1.73 1.66-2.23 1.77-8.2 1.77-5.13 0-5.5-.04-6.81-.63a9 9 0 0 1-2.4-1.71c-.84-.93-6.16-9.11-12.05-18.56-.82-1.31-2.73-4.35-4.26-6.75-3.84-6.03-6.54-10.33-9.21-14.68-3.44-5.6-4.29-6.75-4.98-6.75-.28 0-.54.15-.57.33s-.06 11.01-.06 24.07c-.01 22.41-.04 23.76-.49 24.2-.41.42-1.06.49-5.16.54-2.57.04-4.94-.05-5.25-.18m-286.47-.5c-.4-.44-.43-2.96-.43-30.8v-30.33l.58-.41c.84-.58 10.13-.6 10.96-.03.53.37.54.67.72 12.48.13 9.26.25 12.16.5 12.32.48.3 12.04.27 13.67-.04 2.02-.39 3.48-1.53 5.3-4.18 2.87-4.18 3.2-4.67 4.73-6.95 1.46-2.2 4.03-6.01 7.45-11.06.97-1.42 1.94-2.57 2.31-2.7.35-.14 3.42-.25 6.81-.25 6.87 0 7.1.05 6.29 1.5-.54.96-1.93 2.98-7.07 10.29l-3.94 5.65c-4.02 5.83-6 8.47-7.8 10.4l-1.96 2.08 2.09 2.17a38 38 0 0 1 5.3 6.54c.94 1.38 2.83 4.12 4.2 6.08a628 628 0 0 1 10.95 16.32c.72 1.43.84 1.41-6.29 1.41-7.6 0-7.1.16-9.12-2.85l-3.55-5.22a769 769 0 0 1-5.89-8.73c-.3-.44-1.24-1.87-2.08-3.18-2.27-3.55-3.78-4.99-5.97-5.66-1.62-.5-2.44-.55-8.44-.55-3.66 0-6.8.1-7 .22-.25.16-.34 2.95-.39 12.53-.06 11.7-.09 12.35-.56 12.88s-.76.56-5.72.56c-4.7 0-5.25-.05-5.65-.48m172.94-79.22c-.25-.32-1.67-7.07-1.66-7.89 0-.95-.83-3.13-1.26-3.27-1.64-.52-6.19-5.97-13.28-15.89-.93-1.3-2-2.76-2.38-3.22a80 80 0 0 1-2.13-2.87c-2.21-3.1-4.13-5.3-4.53-5.2-.2.05-1.05.1-1.9.1-1.68 0-4.19-1.01-4.76-1.93-.17-.28-.43-.5-.58-.5-.26 0-1.88.62-5.3 2.04-.87.36-2.18.88-2.9 1.14-.73.27-2.64 1.04-4.24 1.72s-3.62 1.51-4.5 1.84c-2.29.87-4.21 1.65-6.53 2.68-1.13.49-2.17.9-2.33.9s-.63.17-1.03.38c-.69.35-.76.54-.88 2.18a9 9 0 0 1-5.21 7.55c-1.88.93-4.93.85-7-.17a9 9 0 0 1-4.35-4.35 9.2 9.2 0 0 1 .03-7.23 9.3 9.3 0 0 1 4.25-4.17c1.37-.72 1.8-.81 3.78-.81h2.24l.61-1.4a465 465 0 0 1 4.12-8.79l4.56-9.66c.8-1.67 1.83-3.9 2.32-4.96l.88-1.93-.68-.72c-1.03-1.09-1.63-3.45-1.32-5.23l.25-1.44-1.57-1.13a450 450 0 0 1-8.9-6.6c-.53-.4-1.38-1.01-1.9-1.36a22 22 0 0 1-1.58-1.2 77 77 0 0 0-2.11-1.68c-3.67-2.84-6.51-5.35-6.8-5.99-.23-.54-.22-.93.05-1.72.2-.56.3-1.19.22-1.39s.02-.37.21-.38c.6-.04-7.63-1.8-10.48-2.26-3.78-.6-5.74-1.08-6-1.48a2.5 2.5 0 0 1-.22-1.05c0-.85.38-1 4.63-1.81 9.59-1.85 9.67-1.87 9.25-2.47-1.02-1.46-.23-2.66 3.74-5.65 1.5-1.14 2.91-2.19 4.87-3.63a2261.87 2261.87 0 0 1 13.95-10.4l2.43-1.8.02-2.11c.01-2.2.53-3.86 1.41-4.6.6-.49.56-.87-.22-2.35-.73-1.37-6.48-13.3-6.48-13.44a193 193 0 0 0-2.25-4.74 116 116 0 0 1-2.25-4.8c0-.08-.23-.48-.52-.88-.47-.67-.7-.74-2.8-.89-4.65-.33-7.67-2.9-8.34-7.1-.77-4.74 1.79-8.87 6.32-10.18 5.07-1.48 10.34 2.48 10.86 8.15l.17 1.86 1.32.52 3.97 1.59c1.46.58 3.42 1.33 4.37 1.66.94.33 2.25.85 2.9 1.14.66.3 2.5 1.04 4.1 1.64 1.61.6 3.46 1.32 4.11 1.6 5.63 2.37 7.4 2.95 7.4 2.41 0-.47 2.03-1.67 3.41-2.03.78-.2 1.69-.25 2.36-.13 1.26.23 1.56 0 3.53-2.84.64-.92 1.5-2.1 1.9-2.65s.94-1.29 1.19-1.66 1.64-2.32 3.1-4.32c2.58-3.56 3.16-4.36 4.49-6.25.35-.5 1-1.4 1.44-1.98l1.27-1.72c2.22-3.14 4.43-5.44 6.04-6.29.59-.31 1-1.68 1.44-4.7.4-2.82 1.5-8.5 1.7-8.83.26-.41 1.35-.36 1.72.08.17.2.43 1.13.57 2.05.15.93.43 2.34.63 3.14s.51 2.38.69 3.5c.32 2.03.36 2.1 2.33 4.4a76 76 0 0 1 3.42 4.3l12.55 17.64c.84 1.22 1.7 2.4 3.29 4.5l1.36 1.8 1.76-.11q3.12-.2 4.78 1.54c.41.44.9.8 1.07.8s1.01-.32 1.87-.7c.85-.38 2.33-.96 3.27-1.3.95-.33 2.85-1.05 4.23-1.58l4.1-1.58c1.5-.56 2.8-1.06 7.15-2.78l3.44-1.34c.87-.34 2.08-.83 2.68-1.1l1.1-.48.1-1.91a8.6 8.6 0 0 1 2.16-5.39c.96-1.15 3.88-2.63 5.73-2.88 2-.28 5.06.77 6.82 2.34 2.85 2.54 3.46 7.85 1.3 11.24-1.69 2.63-3.86 3.8-7.3 3.9-2.59.08-2.12-.43-4.8 5.27a1255 1255 0 0 1-5.99 12.57c-.8 1.67-2.03 4.2-2.75 5.63a25 25 0 0 0-1.3 2.84c0 .13.36.75.8 1.38a6.4 6.4 0 0 1-.86 8.34c-1.08 1.04-2.17 1.39-4.32 1.39h-1.6l-1.3 2.18c-.73 1.2-1.5 2.54-1.75 2.98-.23.43-.8 1.39-1.24 2.11q-2.53 4.12-2.23 4.4c.19.2 1.9.53 7.08 1.4 4.39.73 8.71 1.5 10.84 1.9 2.08.4 9.72 1.77 14.69 2.63 1.38.24 4.66.84 7.27 1.32 2.62.49 6 1.09 7.52 1.33 3.52.58 5.35 1.07 5.62 1.5.8 1.26-.6 2.07-4.69 2.73-1.44.24-4.53.78-6.86 1.2s-4.83.84-5.55.93c-.73.1-3.02.52-5.09.94a48 48 0 0 1-4.46.76c-.4 0-2.45.35-4.58.79-2.13.43-4.88.9-6.11 1.05s-4.28.63-6.75 1.07l-6.73 1.19a11 11 0 0 0-2.44.6c-.12.12.73 1.8 1.9 3.75a69 69 0 0 1 2.1 3.68c0 .07.18.32.39.55.2.23.54.71.73 1.08.2.36.65 1.09 1 1.62.63.93.69.96 2.7 1.1 2.14.14 3.21.6 4.38 1.83 1.8 1.91 1.88 6.45.16 8.3-.8.86-.78 1.11.15 2.95.42.84 1.07 2.18 1.44 2.98 1.01 2.23 2.72 5.87 4.46 9.53a980 980 0 0 1 4.42 9.32l1.35 2.85h2.34c2 0 2.52.1 3.62.68a8 8 0 0 1 3.6 3.15c3.8 5.62-.25 13.57-6.94 13.62a9 9 0 0 1-7.88-4.58 6.3 6.3 0 0 1-1.04-3.52c-.12-1.93-.15-2-.95-2.33a430 430 0 0 0-5.59-2.26c-1.02-.4-3.04-1.23-4.5-1.85-1.45-.6-3.12-1.28-3.7-1.5-.58-.2-2.07-.8-3.3-1.32l-4.5-1.86c-1.24-.5-2.94-1.21-3.79-1.58l-1.53-.66-.52.66c-.3.37-1.18 1-1.98 1.38-1.28.63-1.69.7-3.3.58-1.96-.14-2.08-.08-3.26 1.65-.25.37-.78 1.1-1.18 1.62a1553 1553 0 0 0-15.54 20.93 12 12 0 0 1-2.8 2.9 5 5 0 0 0-1.67 1.66 51 51 0 0 0-1.74 7.57c-.24 1.72-.68 2.36-1.6 2.36a1 1 0 0 1-.7-.33m-3.51-17.83c0-.24-.23-1.64-.51-3.1-.28-1.48-.7-3.81-.91-5.2-.66-4.1-1.89-11.3-3.32-19.44-.44-2.47-.86-5.15-.95-5.96-.24-2.22-.32-2.26-2.3-.98l-8.18 5.18-1.49.93.03 1.74c.03 1.33-.1 2-.57 2.88l-.6 1.14 3.25 4.38 5.35 7.23 1.46 1.98c.44.58 1 1.36 1.26 1.73s.8 1.08 1.19 1.59c.39.5 1.43 1.9 2.31 3.1 1.93 2.64 3.98 4.08 3.98 2.8m11.38-1.11a68 68 0 0 0 1.98-2.55l2.12-2.8c1.44-1.86 2.26-2.96 7.28-9.7l4.96-6.66-.65-1.27a4.6 4.6 0 0 1-.56-2.83l.08-1.56-2.73-1.75c-1.5-.96-4.03-2.6-5.62-3.66s-3-1.92-3.13-1.92c-.14 0-.33.68-.43 1.52s-.52 3.49-.95 5.89l-1.42 8.07-1.33 7.4c-.38 2.04-.8 4.78-.95 6.08s-.44 3.18-.67 4.18a7 7 0 0 0-.26 2.2c.23.6 1.52.25 2.28-.64m-73.92-4.89c1.84-1.25 2.27-2.2 2.14-4.72-.12-2.43-.74-3.44-2.7-4.42-4.35-2.18-9.16 2.59-6.99 6.92a5.2 5.2 0 0 0 4.9 3.1c1.12 0 1.6-.16 2.65-.88m138.4.6a5.7 5.7 0 0 0 3.78-5.22c0-2.54-2.55-5.08-5.1-5.08-3.55 0-5.96 3.04-5.2 6.58.6 2.82 3.9 4.7 6.51 3.72m-73.02-33.19c-.08-26.3-.09-26.47-.66-28.15-.62-1.83-2.22-4.45-2.88-4.7-.28-.11-1.4.82-3.58 2.98l-3.17 3.15.17 1.98c.09 1.1.45 3.26.81 4.81.36 1.56.65 3.18.65 3.6 0 .43.28 2.2.63 3.93s.7 3.74.8 4.46c.15 1.25.56 3.6 2.14 12.24.37 2 .73 4.17.8 4.83.15 1.19.88 5.41 2.1 12.17.37 1.97.73 4.1.81 4.76s.36 2.06.6 3.12l.45 1.93.2-2.33c.12-1.27.17-14.23.13-28.78m4.67 24.87c.22-1.45.64-3.9.94-5.42.85-4.41 1.82-9.82 1.99-11.11.09-.66.45-2.83.81-4.83l1.31-7.28c.36-2 .72-4.17.81-4.83.16-1.26 1.03-6.28 2.11-12.18.36-1.98.66-4.14.66-4.81 0-1.21-.03-1.25-3.06-4.22-1.69-1.65-3.23-3.03-3.43-3.08-.48-.1-2.07 2.32-2.83 4.32l-.6 1.58-.05 28.98c-.06 28.7-.05 28.95.44 27.25.27-.95.67-2.91.9-4.37m-63.6-1.72c.87-.3 2.2-.82 2.97-1.18a84 84 0 0 1 6.16-2.52c.72-.26 1.97-.78 2.77-1.16s1.61-.69 1.8-.7c.2 0 .85-.24 1.46-.55.6-.3 2-.89 3.1-1.3a197 197 0 0 0 5.95-2.33c1.55-.6 1.9-1 2.05-2.32.22-1.98 1.38-3.54 3.37-4.56 2.07-1.06 3.47-1.05 5.57.04 1.5.78 1.7.74 4.09-.88 2.85-1.93 6.66-4.34 8.2-5.19 1.63-.9 1.72-1 1.72-1.91 0-.53-.35-2.93-.78-5.34s-.86-4.8-.94-5.35c-.17-1.11-.54-1.24-1.49-.51-.34.26-1.34.88-2.21 1.36L92.2 131c-.43.24-1.27.74-1.85 1.11s-1.37.84-1.75 1.05l-2.11 1.14c-.79.42-1.93 1.1-2.54 1.52-.6.41-1.15.76-1.21.76-.12 0-2.47 1.35-9.45 5.42l-3.24 1.87a28 28 0 0 0-1.93 1.18c-.15.12-.6.35-1.01.5-.7.27-.73.25-.55-.3.1-.34 1.1-2.27 2.23-4.3a630 630 0 0 0 5.23-9.67c.36-.65 1.13-2.08 1.7-3.17l1.8-3.3 1.8-3.32c.57-1.09 1.37-2.58 1.77-3.3.4-.73 1.01-1.86 1.35-2.52.33-.65.78-1.42.99-1.7.37-.51.25-.55-4.02-1.4-2.42-.47-5-.86-5.73-.86-1.49 0-1.1-.45-3.83 4.36-2.4 4.23-2.65 4.67-3.72 6.5l-1.01 1.74.66 1.34c.52 1.05.66 1.74.66 3.17 0 2.1-.23 2.82-1.2 3.99a5.6 5.6 0 0 1-4.23 2.1c-1.44.13-1.76.25-1.9.7-.17.5-3.03 6.67-3.54 7.6-.13.24-.88 1.85-1.68 3.58-1.47 3.2-3.65 7.81-5.48 11.61-1.76 3.64-1.74 3.42-.46 4.92.62.71 1.16 1.3 1.2 1.3s.79-.24 1.66-.53m123.35-.2c.23-.4.73-1 1.09-1.35l.66-.62-.47-1.1c-.47-1.09-1.9-4.17-3.58-7.7l-7.1-14.98-1.43-3.07-1.63-.17c-1.99-.2-2.83-.62-4.06-1.99-1.7-1.87-1.92-5.5-.49-7.81l.52-.84-1.97-3.27a77 77 0 0 1-1.97-3.37c0-.06-.28-.55-.62-1.1-.34-.53-1.13-1.84-1.75-2.9l-1.13-1.91H149c-.67 0-3.13.35-5.46.79-2.32.43-4.31.79-4.42.79-.1 0 .21.75.7 1.66l2.27 4.3a73 73 0 0 0 1.59 2.9c.1.15.85 1.52 1.65 3.05a538 538 0 0 0 4.16 7.8c.77 1.46 1.5 2.77 1.6 2.91.52.7 5.05 9.72 4.94 9.84-.14.13-1.23-.43-3.62-1.87a2845.71 2845.71 0 0 1-18.65-10.95l-3.05-1.77c-3.91-2.3-5.78-3.32-6.06-3.32-.16 0-.29.47-.29 1.07 0 .59-.34 2.82-.77 4.96-1 5.13-1.13 6.6-.58 6.75.4.1 2.7 1.54 8.5 5.35 3.74 2.46 3.4 2.37 5.33 1.45 2.13-1 3.33-1.01 5.43-.01 1.39.65 1.76.98 2.45 2.18.44.77.88 1.94.96 2.6.18 1.3.43 1.48 3.68 2.66.73.26 2.64 1.03 4.24 1.7 1.6.68 3.62 1.51 4.5 1.85 4.34 1.7 7.08 2.82 9.12 3.72 2.07.9 6.03 2.45 6.36 2.49.08 0 .34-.32.58-.72m-31.84-30.14a722 722 0 0 0-12.4-12.73l-3.56-3.58-.3 1.57c-.18.86-.39 2.4-.48 3.41l-.17 1.85 1 .56c.55.3 1.77 1 2.71 1.56l2.86 1.63c.63.34 1.58.92 2.11 1.28.54.36 1.08.66 1.2.66s.74.36 1.37.8c.64.43 1.25.79 1.35.79s.79.38 1.52.85c1.15.73 2.76 1.66 3.05 1.76.06.02-.06-.16-.26-.4m-60.77-.44c1.58-.93 4.5-2.59 5.64-3.2.58-.32 1.56-.9 2.18-1.29a8 8 0 0 1 1.26-.71c.08 0 .58-.29 1.13-.64a67 67 0 0 1 4.76-2.73c.84-.42.86-.47.7-1.77-.21-1.97-.91-5.18-1.12-5.18-.15 0-9.9 9.8-14.85 14.92-1.29 1.33-1.2 1.49.3.6m8.24-13.9c2.3-2.34 4.14-4.27 4.08-4.27s-1.4-.23-2.98-.52-3.08-.53-3.34-.53c-.48 0-.99.87-5.87 10.05l-2.6 4.87a63 63 0 0 0-1.29 2.42c0 .1 7.12-7.03 12-12.01m54.73 11.41c-.28-.4-.8-1.32-1.15-2.05-.36-.73-1.07-2.1-1.59-3.04a657 657 0 0 1-4.72-8.87 44 44 0 0 0-1.58-2.85c-.18-.2-5.19.68-6.14 1.08-.36.15 1.16 1.84 7.33 8.12 4.28 4.37 7.78 8.03 7.79 8.14s.14.2.3.2.05-.33-.24-.73m-86.79-7.63c.45-.23 1.7-.48 2.78-.57 1.77-.13 2-.22 2.36-.83l.98-1.67c.54-.9 1.38-2.35 2.76-4.74.3-.53 1.03-1.75 1.62-2.7l1.06-1.76-.97-.25a45 45 0 0 0-5.34-.94c-.8-.09-3-.46-4.9-.83-1.89-.36-4.33-.77-5.42-.9-1.1-.14-3.89-.6-6.22-1.03a233 233 0 0 0-11.68-1.88c-.21 0-.24.3-.08 1 .3 1.38 1.47 2.4 11 9.57l1.82 1.4c1.82 1.49 8.82 6.53 9.08 6.54.18 0 .7-.18 1.15-.4m42.63-14.35c1.7-1.73 3.1-3.26 3.1-3.42 0-.34-2.71-2.23-4.15-2.89-.94-.43-2.78-.47-26.28-.56-13.9-.04-26.75 0-28.57.1l-3.31.2 1.59.33c2.05.42 9.32 1.7 11.37 2.01 2.24.33 11.49 1.96 15.75 2.78 1.96.37 4.7.83 6.08 1.02 2.87.4 8.15 1.34 14.69 2.62 6.83 1.34 6.08 1.5 9.73-2.2m30.36 2.35c2.1-.43 4.78-.9 5.94-1.04s3.31-.52 4.77-.82 3.77-.72 5.16-.92c1.38-.2 3.66-.62 5.07-.92s3.67-.71 5.03-.9c1.35-.2 4.25-.69 6.43-1.08 11.5-2.05 14.35-2.54 14.95-2.54.37 0 1.2-.17 1.85-.37l1.2-.36-1.2-.18c-.65-.1-13.39-.14-28.3-.1-26.9.09-27.14.1-28.32.64a21 21 0 0 0-3.75 2.36l-.71.53 3.22 3.24c2.72 2.74 3.35 3.24 4.03 3.24.44 0 2.53-.35 4.63-.78m-18.7-9.42c.1-.23.06-.35-.07-.27-.12.08-.39-.04-.58-.27-.3-.37-.27-.41.17-.34.29.05.65 0 .82-.1s.58.03.92.3c.38.3.82.42 1.11.32.46-.17.45-.2-.05-.65-.54-.5-.49-1.37.06-1.04q.3.16-.02-.23c-.18-.22-.25-.48-.16-.58q.14-.16-.13-.17c-.17 0-.32.2-.32.46 0 .44-.02.44-.28 0-.15-.25-.45-.46-.67-.46s-.33-.11-.24-.25c.08-.13.03-.32-.12-.4-.15-.1-.27.01-.27.24s-.12.41-.26.41a.3.3 0 0 1-.27-.26c0-.15-.18-.27-.41-.27q-.4 0-.21-.33.23-.37-.23.01-.43.35-.6.07a.6.6 0 0 0-.48-.27q-.34-.01.03.22c.27.17.25.29-.09.57-.36.3-.47.3-.66 0-.12-.21-.17-.46-.1-.57.06-.1-.01-.27-.16-.36-.15-.1-.26-.07-.24.05.09.5-.04.88-.29.88-.14 0-.26-.18-.26-.4 0-.57-.36-.5-.97.2q-1.23 1.4.5 1.36c.55-.01 1 .07 1 .18 0 .12.26.16.6.1.82-.16 1.51.1 1.51.59 0 .3.98 1.64 1.23 1.67.02 0 .11-.18.2-.41m-.65-1.6c-.3-.37-.29-.42.15-.34.27.06.54.25.6.43.16.47-.33.41-.75-.1m-1.94-1.02c.5-.75.64-.83.64-.34 0 .18-.24.48-.54.67-.53.33-.53.32-.1-.33m3.75 2.08c-.09-.1-.32-.1-.51-.02q-.31.13.16.16c.28 0 .44-.06.35-.14m2.05-.9c-.09-.15-.01-.27.16-.27q.28-.01.16-.17c-.1-.09-.35-.02-.56.16s-.54.24-.71.13q-.3-.19-.13.1c.1.18.43.31.72.31s.45-.12.36-.26M99.1 97.96c1.37-.67 4.37-2.67 4.37-2.91 0-.13-1.34-1.62-2.99-3.3-3.41-3.5-3.07-3.38-7.21-2.53-1.42.3-4.03.71-5.78.94-1.76.22-3.56.51-4 .64-.87.27-4.75.92-7 1.18-.8.1-3.25.51-5.43.93s-5.16.94-6.62 1.17c-4.39.68-9.04 1.49-13.23 2.3-2.18.42-4.8.9-5.82 1.05-6.63 1-6.41 1.01 23.95.96 24.77-.04 29.09-.1 29.76-.43m81.5.11c-.88-.2-2.07-.43-2.65-.52-1.23-.2-8.8-1.57-15.94-2.92a85 85 0 0 0-5.5-.92c-.28 0-2.72-.4-5.42-.9a568 568 0 0 0-13.89-2.44c-1.3-.21-4.44-.74-6.96-1.18l-4.59-.8-1.23 1.14c-1.8 1.64-5.34 5.34-5.34 5.56 0 .11.35.38.78.6s1.3.75 1.92 1.16c2.5 1.67.75 1.58 31.96 1.58 24.64 0 28.23-.05 26.86-.36M38.37 95.02c2.11-.41 4.8-.87 5.96-1.02s3.54-.57 5.29-.94c1.74-.36 3.53-.67 3.97-.67.43 0 2.52-.36 4.63-.8 2.1-.43 4.84-.9 6.08-1.05 1.24-.14 2.76-.4 3.38-.6l1.13-.33-1.3-2.59a38 38 0 0 0-1.57-2.9c-.25-.32-1.28-2.11-2.16-3.77-1.34-2.52-1.32-2.5-3.09-2.51-.89 0-2.21-.2-2.93-.43-1.46-.47-1.03-.63-4.32 1.59-.97.65-5.3 3.82-6.2 4.55a655 655 0 0 1-8.99 6.86l-3.14 2.38c-.78.58-2.03 1.56-2.8 2.17l-1.37 1.12 1.8-.15c.99-.09 3.52-.5 5.63-.9m69.25-4.43c.61-.9 1.24-2.1 1.4-2.64.84-2.88.93-9.07.6-42.02-.1-10.32-.27-18.34-.38-17.83-.1.5-.39 2.11-.62 3.57-.59 3.75-1.64 9.98-2.38 14.15-.35 1.97-.71 4.17-.8 4.9-.08.73-.44 2.81-.78 4.63-.8 4.13-1.7 9.38-2 11.64-.24 1.66-.9 5.38-2.25 12.57-.36 1.89-.73 4.17-.82 5.06l-.17 1.63 3.14 3.07c1.73 1.69 3.33 3.04 3.55 3 .21-.03.9-.81 1.5-1.73m12.47-1.37 3.26-3.17-.17-1.13c-.1-.62-.46-2.8-.82-4.83l-1.3-7.41c-.36-2.04-.79-4.66-.95-5.82a55 55 0 0 0-.8-4.24 19 19 0 0 1-.5-3.04c-.01-.5-.25-2.05-.55-3.44-.29-1.38-.64-3.34-.78-4.36a422 422 0 0 0-2.26-13.5c-.34-1.89-.76-4.33-.92-5.42-.16-1.1-.52-2.94-.79-4.1-.49-2.1-.49-1.88-.43 27.65.06 26.93.1 29.92.5 31.4.5 1.83 2.2 4.58 2.83 4.57.23 0 1.88-1.43 3.68-3.16m-40.7-1.23c1.81-.36 3.5-.72 3.75-.79.39-.11.27-.48-.85-2.62-1.28-2.45-2.9-5.47-4.18-7.8l-1.57-2.91c-.5-.95-1.19-2.2-1.52-2.78-3.45-6.06-8.74-16.22-8.54-16.42q.24-.22 6.49 3.42c3.52 2.06 4.83 2.83 8.66 5.13 16.06 9.62 16.08 9.63 16.32 9.38.1-.1.36-1.32.57-2.7.22-1.38.67-3.99 1-5.79.62-3.26.62-3.28.1-3.65a241 241 0 0 0-10.89-7.35l-1.1-.67-1.31.68c-2.53 1.31-4.79 1.05-6.88-.78-1.08-.95-2.17-3.1-2.17-4.29 0-.76-.12-.85-2.05-1.61l-3.9-1.54c-2.17-.86-4.17-1.62-7.23-2.76-1.2-.44-2.45-.95-2.76-1.11-.32-.17-1.47-.63-2.57-1.03s-3.43-1.29-5.17-1.98c-4.69-1.84-4.27-1.8-5.6-.38-1 1.06-1.13 1.33-.92 1.87.26.67 2.7 5.8 4.8 10.15l2.79 5.82 2.82 5.95a93 93 0 0 1 1.54 3.34c.21.56 1.2.9 2.62.9.95 0 2.94 1.3 3.88 2.53.72.94.77 1.14.77 3.58 0 2.3-.07 2.66-.64 3.43l-.64.87.74 1.34c.41.74 1.55 2.71 2.53 4.39 2.94 5.01 3.16 5.39 3.62 6.3l.45.86 1.86-.16a65 65 0 0 0 5.17-.82m72.11-1.5c.74-1.34 2.45-4.25 3.8-6.46l2.45-4.03-.53-.67c-1.14-1.45-1.36-4.72-.45-6.49a6.2 6.2 0 0 1 5.3-3.17h1.32l.9-2.05c.88-1.97 2.66-5.73 6.23-13.17l3.05-6.35c.77-1.6 1.63-3.43 1.9-4.08l.5-1.17-1.12-1.14c-.62-.63-1.33-1.15-1.58-1.15s-1.15.3-2 .65c-.84.36-2.96 1.2-4.7 1.86s-3.84 1.5-4.64 1.84-1.75.71-2.11.81c-.37.1-2.57.94-4.9 1.86-2.33.91-4.53 1.75-4.9 1.85-.36.1-1.52.55-2.57 1-1.6.66-1.92.9-1.92 1.4 0 1.2-1.07 3.5-2 4.32-1.48 1.3-2.49 1.72-4.22 1.73a5.3 5.3 0 0 1-3-.73l-1.42-.75-4.14 2.8c-8.36 5.65-7.84 5.24-7.92 6.26-.05.5.28 2.73.73 4.94.44 2.2.8 4.49.8 5.07 0 1.62.05 1.62 3.22-.28l7.1-4.2 1.85-1.1 5.43-3.21a918 918 0 0 1 8.86-5.21c5.47-3.26 5.3-3.17 5.3-2.48 0 .38-2.3 4.93-4.37 8.7-.4.72-1.27 2.33-1.92 3.57a41 41 0 0 1-1.69 2.95c-.27.38-.5.77-.5.87s-1.66 3.2-3.7 6.9c-2.04 3.72-3.7 6.85-3.7 6.97s-.29.65-.64 1.16l-.64.94 4.28.8c2.35.45 4.8.86 5.46.91s1.25.12 1.33.14c.07.02.73-1.06 1.47-2.4M92 85.85l2.16-.47-8.34-8.46-8.33-8.46 1.27 2.38c.7 1.3 1.67 3.15 2.16 4.1l1.9 3.57c2.24 4.13 3.31 6.14 3.79 7.11l.5 1.03 1.37-.17c.75-.09 2.33-.38 3.52-.63m45.4-2.9 2.85-5.23c.46-.88.94-1.71 1.05-1.86.1-.14 1-1.8 1.98-3.7l1.79-3.44-8.1 8.14c-4.44 4.48-8.1 8.23-8.1 8.34-.03.19 4.91 1.3 5.99 1.35.46.02.93-.64 2.55-3.6m4.69-16c.01-.28-1.12.18-2.3.93-.55.35-2.49 1.5-4.3 2.56-1.82 1.06-3.91 2.32-4.64 2.81a8 8 0 0 1-1.54.9c-.12 0-.73.35-1.37.79-.63.43-1.24.8-1.35.8-.1 0-.4.17-.64.4-.48.43-.47 1.58.05 5l.29 1.83 7.9-7.92c4.34-4.35 7.9-8 7.9-8.1M96.8 80.45c.17-.96.3-2.35.3-3.09 0-1.13-.09-1.38-.55-1.52a203 203 0 0 1-10.7-6.2 50 50 0 0 0-5.02-2.87c-.74-.32-.72-.26.4.88C87.75 74.4 96.14 82.6 96.3 82.43c.12-.13.34-1.01.5-1.97m52.7-14.17c.23-.29.37-.66.31-.83-.05-.18.03-.32.18-.32.16 0 .3-.16.3-.35 0-.2-.19-.36-.4-.36-.23 0-.4.24-.4.54 0 .53 0 .53-.4.02q-.41-.54-.25-.08c.08.23-.01.49-.2.56q-.37.15-.35-.56c0-.42-.13-.67-.32-.63-.19.03-.34-.13-.34-.38 0-.24-.07-.37-.15-.28-.28.28.18 1.27.5 1.08q.28-.14.1.07c-.13.13-.3.24-.4.24-.69.02-1.14.92-.46.92.2 0 .45.24.55.53.09.3.28.53.41.53.14 0 .25.13.25.28q-.02.24-.22.14c-.12-.07-.22.06-.22.3 0 .42.09.33 1.51-1.42m-3.58-1.33c.37-.37.48-.38.68-.06.13.2.24.31.26.24l.1-.56c.07-.31-.11-.41-.68-.4-.45.02-.72.15-.65.33.06.17-.02.43-.19.6-.16.16-.22.3-.13.3.1 0 .37-.2.61-.45m-.8-1.25c-.05-.45-.03-.68.04-.52.06.17.35.24.64.17.54-.14.72-.6.23-.6-.15 0-.2-.12-.12-.26.08-.13.35-.18.58-.09q.43.18.3-.2c-.08-.21-.34-.34-.6-.3q-.45.09-.28-.26.13-.29-.17.07c-.2.23-.52.37-.73.3q-.4-.17-.18.37.23.56-.12.19c-.38-.38-.89-.2-1.76.6-.8.74-.6 1.18.46 1.06.43-.05.79 0 .79.13 0 .12.18.15.4.07.3-.11.35-.03.23.34q-.2.55.11.12c.15-.2.23-.74.18-1.2m-.92.1c0-.14.1-.26.24-.26s.33.12.42.27c.09.14-.03.26-.25.26-.23 0-.41-.12-.41-.26m-.53-.74c0-.13.17-.22.4-.22.21 0 .39.1.39.22s-.18.22-.4.22-.4-.1-.4-.22m5.82.68q0-.24-.36.03c-.2.16-.45.2-.57.1q-.18-.14-.03.12c.2.36.96.17.96-.25m1.06.21c0-.06-.12-.19-.27-.28-.14-.09-.26-.03-.26.12s.12.28.26.28.27-.05.27-.12m-24.82-9.3 3.65-2.53c.94-.65 2.2-1.52 2.79-1.95l1.07-.76.04-1.95c.02-1.43.18-2.18.57-2.85l.54-.91-.59-.86a99 99 0 0 0-1.78-2.45c-.65-.87-1.43-1.94-1.73-2.38a476 476 0 0 0-10.01-14c-2.52-3.44-2.65-3.58-3.53-3.54-.83.03-.9.09-.77.72.08.37.34 1.93.58 3.46.52 3.33 1.74 10.65 2.62 15.74.36 2.04.72 4.36.8 5.16.1.8.46 2.87.81 4.6s.65 3.42.65 3.76.13 1.2.29 1.94l.28 1.32.9-.58zm-24.68.68c.15-.74.28-1.59.28-1.89s.35-2.47.78-4.81c1.53-8.35 2.14-11.95 2.14-12.56 0-.33.29-2.03.65-3.76.36-1.74.72-3.97.82-4.95s.4-3.08.69-4.65.47-2.92.4-2.99c-.06-.06-.43.02-.82.2-.66.3-1.64 1.52-6.4 7.98l-2.83 3.83-1.32 1.83c-.33.47-2.1 2.94-3.96 5.5l-3.38 4.66.59.8c.45.6.62 1.28.73 2.9l.14 2.12 5.3 3.56a69 69 0 0 0 5.6 3.56c.16 0 .43-.6.59-1.33m-57.1-18.81c1.02-.4 2.26-2.07 2.54-3.43.3-1.47-.06-3.55-.78-4.56-.8-1.12-3.14-2.13-4.57-1.97a5.4 5.4 0 0 0-3.96 2.28c-.7 1-.8 1.37-.8 2.93 0 1.5.11 1.95.72 2.88.4.6 1.04 1.3 1.42 1.55 1.3.85 3.69.99 5.44.32m140.23-.36c3-1.96 3.13-6.59.25-8.53a5.4 5.4 0 0 0-5.87-.32c-2.91 1.48-3.48 6.07-1.02 8.3.57.5 1.37 1 1.77 1.1.4.08.86.2 1 .26.66.25 3-.24 3.87-.8" style="fill:#35cbbe;fill-opacity:1"/><path d="M559.76 252.25c-.7-.9-1.28-1.82-1.28-2.06s-.75-.78-1.65-1.2c-1.62-.73-1.63-.76-.47-1.88a8 8 0 0 1 2.58-1.56c1.13-.33 1.4-.17 1.4.87 0 1.52 1.55 1.7 2.35.27q.57-1.03 1-.31c.7 1.13 1.49.8 1.7-.7.21-1.47 1.78-1.91 2.2-.61.15.42-.17.77-.71.77-.61 0-.98.54-.98 1.43 0 1.44-3.39 6.61-4.34 6.61-.29 0-1.1-.73-1.8-1.63" style="fill:#35cbbe;fill-opacity:1;stroke-width:.618468" transform="scale(.265)"/><path d="M418.24 746.3c-1.25-.8-3.28-9.77-7.52-33.25-.94-5.23-2.85-8.52-6.21-10.7-6.13-3.97-20.9-21.5-38.64-45.85a4228 4228 0 0 0-29.28-39.66c-3.45-4.64-7.9-10.14-9.88-12.22l-3.6-3.78h-5.9q-12.9 0-19.84-6.64c-1.87-1.8-2.6-2.12-4.07-1.83-1.77.35-26.97 10.36-63.85 25.36a5701 5701 0 0 1-35.95 14.49q-3.59 1.46-3.65 5.6c-.05 4.07-1.89 11.52-3.78 15.36-3.77 7.67-11.7 14.68-19.23 17.02-4.55 1.42-12.43 1.5-17.45.2-11.8-3.07-21.63-13.32-23.88-24.9-1.02-5.3-.45-13.74 1.25-18.2 2.83-7.47 9.43-14.11 18.42-18.54 3.94-1.94 4.48-2.03 12.72-2.26l8.6-.24 1.26-2.86c1.72-3.93 12.24-26.4 30.38-64.9 8.38-17.8 15.23-32.65 15.23-33.01s-.83-1.6-1.85-2.77c-4.13-4.7-5.9-10.75-5.4-18.39.18-2.76.52-5.48.75-6.06.32-.8-.83-1.94-4.97-4.94-36.13-26.22-66.3-49.53-76.05-58.76-5.83-5.52-6.38-6.8-5.03-11.73.5-1.82 1.06-4.2 1.25-5.27l.34-1.97-5.39-1.26a726 726 0 0 0-33.61-6.88c-16.91-2.87-22.43-4.32-23.42-6.19-1.17-2.17-.73-4.83.97-5.94.93-.61 10.48-2.8 23.04-5.28 11.8-2.32 22.91-4.65 24.7-5.17 3.54-1.03 3.85-1.66 2.28-4.7-1.63-3.15-.68-5.24 4.9-10.77 2.77-2.74 8.93-7.87 13.69-11.41 56.9-42.26 74.43-55.41 75.6-56.7 1.27-1.37 1.4-2.13 1.4-8.22 0-8.2 1.4-13.4 4.62-17.16 1.2-1.4 2.18-2.93 2.18-3.4s-4.06-9.18-9.03-19.37a2899 2899 0 0 1-13.67-28.44 7766 7766 0 0 0-12.93-27.3c-4.55-9.59-8.28-17.6-8.28-17.8 0-.21-.72-1.48-1.61-2.81-1.9-2.87-3.28-3.39-11.38-4.29-10.9-1.21-17.53-4.07-23.2-10.02-11.38-11.93-11.24-32.84.3-45.13 10.9-11.63 28.03-13.85 40.5-5.25 8.98 6.19 14.42 15.56 15.46 26.65.22 2.37.53 4.92.68 5.66.23 1.12 2.69 2.3 14.36 6.92 7.75 3.07 16.4 6.43 19.22 7.47 5.34 1.97 23.36 9.08 51.36 20.28 8.98 3.59 17.53 6.66 19 6.82 2.4.27 2.83.11 4.3-1.63.9-1.07 3.76-2.97 6.36-4.23 4.4-2.12 5.24-2.3 11.94-2.62 6.02-.28 7.42-.54 8.56-1.57.75-.68 12.65-16.96 26.45-36.18s28.3-39.25 32.21-44.5C391.57 65 399.22 56.82 404 53.8c2.13-1.35 3.25-2.6 4.12-4.64.65-1.53 2.48-10.3 4.06-19.48 3.79-22.05 5.03-27.65 6.37-28.64 1.18-.87 3.7-.5 4.97.73.73.72 5.82 23.82 7.53 34.2.91 5.51 2.42 7.97 11.8 19.32 3.93 4.75 19.07 25.42 33.65 45.93a5433 5433 0 0 0 33.68 47l7.17 9.7 7.11-.1c8.7-.14 12.13.87 17.2 5.08 1.94 1.6 3.85 3.1 4.26 3.36.41.24 5.7-1.5 11.75-3.89 6.06-2.38 22-8.53 35.44-13.67s32.15-12.4 41.58-16.15c19.52-7.76 17.44-5.99 18.01-15.36.59-9.62 5.58-18.58 13.04-23.41 12.28-7.94 22.1-8.76 34.18-2.85 11.45 5.6 17.18 15.42 17.11 29.35-.03 7.1-1.3 11.99-4.35 16.9-6.41 10.31-13.73 14.33-27.65 15.2l-7.41.47-1.9 2.2c-1.04 1.22-6.48 11.91-12.07 23.77a7244 7244 0 0 1-22.42 46.91c-6.73 13.95-12.24 25.85-12.25 26.46s1.11 2.85 2.47 5c3.4 5.4 4.42 8.57 4.44 14a23.2 23.2 0 0 1-9.27 18.98c-3.34 2.55-6.18 3.3-14.3 3.8l-6.52.41-10.36 17.63c-11.69 19.86-14.38 24.93-13.9 26.18.36.93 7.44 2.4 30.43 6.3 12.22 2.08 45.47 8.01 103.9 18.55l41.14 7.38c22.9 4.06 25.35 4.88 25.35 8.38 0 4.36-5.6 5.76-58.13 14.54-7.32 1.22-19 3.3-25.98 4.62a494 494 0 0 1-17.94 3.11 506 506 0 0 0-17.93 3.1 741 741 0 0 1-23.5 3.98c-12.68 1.87-52.45 8.75-55.82 9.66-1.36.36-2.32 1-2.32 1.54 0 2.09 11.06 21.66 19.97 35.35 5.52 8.47 5.5 8.46 13.55 9.11 7.92.64 10.71 1.78 15.02 6.12 2.88 2.9 4.04 4.62 4.86 7.2a31.5 31.5 0 0 1 1.05 14.97c-.86 4.4-1.9 6.66-4.44 9.76-1.03 1.26-1.77 2.9-1.77 3.93 0 .97 2.35 6.68 5.21 12.69 2.87 6 9.2 19.4 14.1 29.78 4.88 10.38 13.04 27.67 18.13 38.44l9.26 19.57 9 .22c8.86.22 9.07.25 13.28 2.38 6.04 3.06 9.7 6.15 13.23 11.19 4.38 6.23 5.9 11.09 5.9 18.8 0 4.84-.3 7.1-1.42 10.33-5.36 15.65-20.58 25.02-35.78 22.02a34 34 0 0 1-21.95-14.4c-3.7-5.42-4.7-8.34-5.42-16.04-.33-3.49-.93-6.46-1.39-6.92-.77-.76-17.52-7.72-51.22-21.26-8.33-3.35-22.94-9.35-32.47-13.32s-18-7.51-18.86-7.85c-1.36-.54-1.87-.3-4.34 2.08a37 37 0 0 1-6.8 4.86c-3.92 2.12-4.17 2.16-11.44 2.22-4.34.03-8 .35-8.77.77-.74.4-3.09 3.15-5.23 6.13-2.13 2.98-11.4 15.43-20.57 27.68a5399 5399 0 0 0-29.6 39.89c-14.9 20.34-17.51 23.49-23.43 28.21-2.38 1.9-4.85 4.32-5.5 5.36-1.3 2.15-4.88 16.43-6.74 26.87-1.29 7.28-2.4 10.27-4.08 10.92-1.35.51-2.9.47-3.84-.13m-14.16-66.58c.19-.5-.04-3.22-.51-6.03-1.43-8.51-12.45-73.04-16.1-94.19-1.87-10.88-3.84-22.99-4.38-26.9s-1.3-7.48-1.67-7.93c-.37-.46-1.29-.71-2.04-.57s-10.55 6.08-21.77 13.2l-20.42 12.93-.25 7.11c-.22 6.56-.4 7.41-2.24 11-1.12 2.16-1.8 4.23-1.55 4.64s7.36 10.07 15.8 21.47l27.2 36.8a779 779 0 0 0 15.78 20.82c5.48 6.64 11.16 10.22 12.15 7.65m39.73-2.57c1.16-.55 3.18-2.29 4.48-3.86 4.13-4.99 57.12-75.46 59.87-79.62.76-1.15.62-1.8-1.32-5.99-2.03-4.38-2.17-5.1-2.17-10.9v-6.22l-4.17-2.64c-2.3-1.44-9.88-6.36-16.86-10.92-17.88-11.7-22.4-14.4-23.05-13.76-.3.31-1.1 4.14-1.76 8.52a2911 2911 0 0 1-6.8 39.5c-7.23 40.8-8.97 51.02-10.14 59.68a537 537 0 0 1-2.56 16.24c-1.27 7.3-1.44 9.32-.83 10.05.99 1.2 2.7 1.16 5.31-.08m-281.66-18.2c3.33-.92 9.64-5.35 11.4-8 2.3-3.48 3.08-8.84 2.23-15.22-.9-6.76-2.54-9.76-6.95-12.76-8.55-5.83-18.94-5.03-25.96 2-7.89 7.88-7.9 20.24-.01 28.36 4.9 5.06 12.92 7.4 19.29 5.63m530.31-1.18c1.46-.65 4.1-2.52 5.86-4.16 6.81-6.34 8.7-15.24 4.86-22.92-2.16-4.33-6.24-8.35-10.39-10.26-2.15-.99-4.08-1.32-7.57-1.32-4.03 0-5.26.29-8.79 2.03-7.3 3.6-10.98 9.72-10.93 18.22.04 7.4 2.72 12.58 8.49 16.4 5.93 3.95 12.48 4.66 18.47 2M414.84 556.69c.22-95.4-.22-123.71-2.03-129.64-1.26-4.14-5.12-11.64-8.04-15.61-3.63-4.94-4.18-4.64-20.18 11.17l-9.07 8.96.3 3.46a212 212 0 0 0 3.39 22.02c.67 3.06 1.88 9.88 2.68 15.15 1.51 10.02 3.03 18.79 10.57 61.23 2.5 14.12 5.27 30.26 6.13 35.87s3.1 18.7 4.96 29.07 4.22 23.85 5.25 29.95 2.47 13.6 3.2 16.7c1.26 5.3 1.37 5.5 1.98 3.75.43-1.24.71-31.62.86-92.08m15.1 84c.6-2.36 2.1-10.13 3.32-17.27 1.22-7.15 3.47-19.67 5-27.84s4.03-22.35 5.56-31.54 4.13-24.21 5.79-33.4c1.65-9.18 3.75-21.29 4.66-26.9.9-5.61 3.59-21.2 5.96-34.63s4.48-27.12 4.67-30.4c.33-5.42.24-6.18-1-8.16-1.35-2.2-17.75-18.4-21.56-21.3l-2.04-1.55-1.9 1.79c-2.53 2.4-6.92 9.97-9.1 15.7l-1.77 4.65-.45 93.18c-.45 92.92-.18 122.6 1.11 122.18.36-.12 1.15-2.15 1.75-4.5m-237.87-20.3a217 217 0 0 0 14.19-5.63 400 400 0 0 1 15.9-6.53c4.33-1.65 10.17-4.01 12.99-5.26a158 158 0 0 1 9.14-3.68c2.22-.78 12.8-4.94 23.5-9.23 22.68-9.1 22.79-9.18 24.05-16.24 1.6-8.98 8.57-15.9 18.56-18.47 4.6-1.18 7.66-.7 13.7 2.16 6.84 3.24 7.2 3.13 21.7-6.37a763 763 0 0 1 21.57-13.61c4.93-2.95 9.5-6.03 10.14-6.85 1.08-1.37 1.11-1.92.46-6.98-1.1-8.53-6.19-37.42-6.87-38.98-.92-2.09-2.77-1.72-8 1.6a195 195 0 0 1-9.03 5.34c-2.38 1.3-8.22 4.66-12.98 7.46s-11.59 6.75-15.16 8.77a576 576 0 0 0-11.13 6.5 6206 6206 0 0 1-59.48 34.46c-1.6.86-3.07 1.4-3.29 1.18-.5-.5 2.76-6.99 12.37-24.64 4.16-7.65 17.03-31.45 28.6-52.88a8475 8475 0 0 1 22.19-40.95c.83-1.43.96-2.17.48-2.65-1.5-1.5-30.66-6.8-37.4-6.8-3.46 0-4.28.21-5.42 1.43-1.37 1.46-26.7 45.22-26.7 46.13 0 .28.87 2.42 1.93 4.76 3.9 8.61 3.68 19.4-.54 25.55-3.92 5.7-8.44 8.33-16.21 9.4-5.08.7-8.06 1.62-8.06 2.49 0 .74-23.62 51.2-39.54 84.48-6.33 13.25-6.95 15.36-5.27 17.93.92 1.4 7.02 8.2 7.36 8.2.05 0 2.86-.93 6.25-2.09m466.8-1.18a40 40 0 0 1 4.11-5.06c1.03-.98 1.87-2.14 1.87-2.56 0-1.16-16.4-36.31-43.58-93.37l-3.86-8.1-4.7-.43c-7.92-.72-10.67-1.85-14.98-6.16-2.78-2.79-4.16-4.78-5.15-7.43a26.6 26.6 0 0 1 1.54-22.6l2.15-3.94-7.03-11.82A9438 9438 0 0 1 575.17 434l-7.03-11.9h-4.52c-2.48 0-10.3.99-17.35 2.2l-16.7 2.88c-2.54.43-3.87.95-3.87 1.51 0 1.09 4.51 10.08 11.76 23.4 3.14 5.78 11 20.4 17.45 32.47a2845 2845 0 0 0 16.57 30.61c6.07 10.88 17.61 34.23 17.15 34.69-.52.51-3.32-1.03-23.98-13.2-41.67-24.52-81.7-47.83-87.42-50.88-3.41-1.83-6.27-3-6.57-2.7-.28.3-.83 3.17-1.21 6.37-.39 3.2-1.66 11.03-2.84 17.4-2.78 15.1-3.54 20.72-3.07 22.75.28 1.25 1.5 2.3 4.98 4.29a717 717 0 0 1 20.72 13.14 662 662 0 0 0 17.9 11.44c2.7 1.4 5.57 1.13 10.12-.94 8.32-3.77 12.79-3.74 20.62.12 6.43 3.16 10.01 8.18 12.28 17.2.55 2.22 1.51 4.55 2.13 5.2.62.63 6.51 3.3 13.1 5.94 6.57 2.62 23.78 9.59 38.23 15.47l38.97 15.86c6.97 2.84 12.98 5.16 13.35 5.16s1.68-1.47 2.92-3.28M539.3 506.9c0-.64-34.01-35.77-50.62-52.28-7.49-7.44-11.27-10.8-11.48-10.2-.96 2.71-3.93 25.11-3.39 25.54.14.1 5.53 3.19 12 6.86 10.7 6.07 14.65 8.37 30.42 17.74 2.78 1.65 5.2 3 5.37 3a163 163 0 0 1 8.54 4.95c8.32 5 9.16 5.4 9.16 4.4m-224.16-6.6a2211 2211 0 0 0 35.9-20.71 284 284 0 0 1 11.78-6.65c5.5-2.78 5.53-2.85 4.65-9.92-.93-7.47-3.29-17.54-4.18-17.83-.88-.3-59.62 58.91-59.62 60.1 0 .52.22.94.5.94.27 0 5.2-2.67 10.97-5.93m232.2-3.67c0-.52-1.21-3.1-2.7-5.73a1918 1918 0 0 1-14-26.11 5926 5926 0 0 0-14.72-27.68l-3.42-6.34h-2.56c-2.6 0-13.1 1.78-18.41 3.12-2 .5-2.94 1.06-2.94 1.75 0 1.46 6.04 8 32.75 35.53 13.08 13.49 24.01 24.94 24.3 25.46.68 1.21 1.7 1.21 1.7 0m-245.99-6.33c17.13-16.8 53.74-54.73 53.26-55.16-.76-.7-23.42-4.45-24.44-4.05-.87.34-3.97 5-7.18 10.82-4.28 7.73-29.22 54.47-29.22 54.74 0 .88 1.42-.3 7.58-6.35m-82.15-24.55c2.4-.83 6.6-1.7 9.32-1.93 8.08-.7 7.78-.43 15.44-13.64a2201 2201 0 0 1 12.51-21.24c4-6.67 5.5-9.7 4.98-10-1.24-.67-11.98-2.85-19.32-3.91-3.74-.54-14.04-2.23-22.88-3.76s-21.93-3.72-29.07-4.88a7258 7258 0 0 1-33.09-5.5 1481 1481 0 0 0-23.35-3.82l-3.24-.43.01 2.07c.02 3.2 1.97 6.72 5.62 10.14 10.26 9.62 75.19 58.41 77.73 58.41.53 0 2.93-.68 5.34-1.5m147.22-43.08c1.87-.53 4.37-2.57 10.74-8.81 4.57-4.48 9.7-9.8 11.4-11.82l3.1-3.7-2.66-2.35c-3.4-3.02-11.04-7.79-14.4-8.99-3.94-1.4-64.01-2.13-145.15-1.75-63.04.3-77.08.64-72.98 1.75 3.37.91 25.67 4.95 48.86 8.84 13.44 2.25 34.17 5.87 46.08 8.05 11.9 2.17 28.88 5.09 37.72 6.49 13.6 2.15 29.58 5.05 64.63 11.73 7.05 1.35 9.42 1.45 12.66.56m127.74-2.08c6.29-1.22 16.45-3.02 22.57-4s16.56-2.77 23.2-3.98l24.11-4.39c6.64-1.2 24.17-4.28 38.97-6.82s35.61-6.15 46.26-8.02a932 932 0 0 1 23.81-3.96 63 63 0 0 0 8.1-1.63c3.21-.94 3.52-1.16 2.48-1.77-1.54-.91-138.4-1.29-182.7-.5-29.44.51-31.42.62-34.54 1.83-3.22 1.26-17.41 10.37-17.41 11.18 0 .57 22.23 22.56 24.12 23.86 2.05 1.41 6.27 1.05 21.03-1.8m-70.63-36.02c.13-.86-.26-1.4-1.24-1.7l-1.42-.45 1.54-.5c.85-.28 2.23-.53 3.06-.56 1.46-.06 1.47-.03.3.86-1.12.88-1.07.93.97.9 1.2-.02 2.93.15 3.87.38 2.14.52 3.92-.7 2.87-1.98-.56-.67-.42-.84.67-.84.85 0 1.49-.47 1.7-1.24.17-.68.62-1.24.98-1.24.48 0 .48-.19 0-.67s-1.17-.42-2.44.23c-1.84.93-3.32.8-3.32-.3 0-.34.42-.47.93-.27 1.05.4 1.3-1.15.3-1.78a1.1 1.1 0 0 1-.47-1.14c.1-.4-.04-.8-.3-.88q-1.69-.49-1.7.76c0 .7-.47.6-2.08-.46-1.15-.75-2-1.51-1.9-1.7s-.04-.71-.32-1.16c-.6-.98-1.88-.35-1.88.92 0 .49-.28.89-.62.89s-.62-.26-.62-.58-.55-.75-1.23-.97-1.24-.8-1.24-1.28c0-.74-.22-.76-1.22-.13-.97.6-1.38.6-1.98 0-.88-.88-2.98-1.01-2.98-.19 0 .31.34.69.77.83.6.2.58.5-.1 1.3-1.16 1.43-2.16.97-2.53-1.15-.42-2.36-1.71-2.69-1.97-.5-.23 2.08-1.35 2.31-1.63.35-.1-.77-.56-1.4-1.01-1.4-1.06 0-5.29 4.69-5.29 5.86 0 1.3 2 2.19 4.87 2.19 1.37 0 2.67.3 2.9.67.25.4 1.24.52 2.43.3 2.78-.53 5 .46 5.73 2.55.8 2.28 3.82 5.87 4.72 5.58.38-.13.78-.8.88-1.5m257.95-12.9c1.22-.2 1.86-.58 1.54-.9-.3-.31-6.81-1.7-14.46-3.08s-26.71-4.87-42.36-7.74a1541 1541 0 0 0-35.1-6.15 974 974 0 0 1-25.67-4.37 6365 6365 0 0 0-53.65-9.32 3442 3442 0 0 1-35.98-6.21c-1.1-.28-3.44 1.77-13.08 11.4-6.46 6.46-12.06 12.33-12.44 13.04-.77 1.44-.8 1.4 8.88 7.58 5.3 3.38 6.64 3.99 10.88 5 4.92 1.16 204.91 1.88 211.44.76m-308.37-.73c2.64-.74 9.49-4.75 14.83-8.67 3.15-2.32 3.5-2.8 2.92-3.87-1.46-2.73-19.94-20.98-22.5-22.22-3.38-1.64-4.03-1.61-15.38.56-5.25 1-15.22 2.67-22.16 3.7a373 373 0 0 0-18.18 3.08c-3.07.67-11.42 2.08-18.56 3.13s-18.97 3-26.28 4.34-22.62 3.97-34.02 5.86-28.1 4.82-37.1 6.5a1679 1679 0 0 1-24.13 4.34c-11.5 1.91-14.22 2.5-14.22 3.1 0 .3.9.65 2 .8 4.6.62 210.49 0 212.78-.65m-236.12-10.12c5.78-1 17.2-2.93 25.36-4.3s19.85-3.44 25.97-4.6c6.13-1.15 12.8-2.28 14.85-2.5s9.41-1.5 16.39-2.85c6.97-1.34 16.57-3 21.33-3.69 8.5-1.22 19.49-3.48 19.49-4.01 0-.68-8.45-17.01-10.81-20.91-1.47-2.41-4.66-8-7.1-12.43-6.2-11.2-6.15-11.17-13.51-11.65-3.3-.22-8-.95-10.46-1.63-3.4-.95-4.85-1.1-6.11-.61-2.51.95-15.83 10.2-29 20.14-42.43 32-66.5 50.59-66.5 51.34 0 .62 9.36-.46 20.1-2.3m267.8-15.24c3.7-4.72 7.44-12.03 8.28-16.24 1.52-7.57 1.91-23.28 1.92-77.13 0-60.29-1.01-141.83-1.8-144.7l-.48-1.74-.4 1.85c-.21 1.02-4.16 24.4-8.76 51.95a6192 6192 0 0 1-9.9 58.14c-.84 4.42-3.07 17.5-4.95 29.07s-4.8 28.4-6.49 37.42c-2.99 16.1-5.72 32.47-6.45 38.71l-.37 3.16 9.2 8.97c9.75 9.52 15.12 14.1 16.53 14.1.48 0 2.13-1.6 3.66-3.56m44.25-3.49c4.23-3.87 9.91-9.3 12.61-12.04l4.92-5-2.97-17.18c-1.63-9.45-4.75-27.76-6.92-40.68a1363 1363 0 0 0-5.48-30.93c-.84-4.08-1.82-9.98-2.18-13.12s-1.2-8.34-1.85-11.55a822 822 0 0 1-4-23.36c-1.55-9.64-3.78-23.09-4.98-29.9s-3.43-19.74-4.97-28.75a684 684 0 0 0-3.35-18.55l-.92-3.9c-1-4.4-1.48.4-1.85 18.27-.56 27.4.66 200.31 1.44 204.56.74 3.98 5.33 13.52 8.11 16.86 1.18 1.4 2.48 2.32 3.31 2.32.9 0 4.08-2.47 9.08-7.05m-163-6.93c7.08-.96 27.88-4.96 28.83-5.55.3-.19.55-.75.55-1.24 0-1.48-15.15-30-36.94-69.53-12.5-22.69-26.76-50.24-26.76-51.72 0-1.26 19.83 10.13 73.9 42.45 39.04 23.33 43.97 26.05 44.8 24.76.32-.5 1-3.28 1.52-6.18l3.2-17.97c2.99-16.85 3.31-19.3 2.69-20.5-.3-.55-3.33-3-6.75-5.45-8.53-6.09-33-22.35-36.89-24.52l-3.18-1.77-4.55 2.24c-8.41 4.14-13.95 4.37-20.87.86-6.22-3.15-11.86-11.04-12.98-18.17-.3-1.83-1.04-3.81-1.7-4.45-1.16-1.16-12.23-5.64-40.43-16.37a835 835 0 0 1-18.25-7.11c-9.48-4.12-43.3-16.7-44.9-16.7a8 8 0 0 0-3.04.62c-1.93 1.04-6.79 7.43-6.79 8.94 0 1.88.33 2.6 19.8 43.32a7730 7730 0 0 1 21.3 44.8c2.81 6.04 5.03 9.99 6.03 10.73.97.73 3.23 1.36 5.9 1.66 2.45.27 5.64 1.12 7.32 1.95 3.7 1.83 9.71 7.3 10.95 9.97 1.3 2.8 1.87 9.47 1.35 15.7-.4 4.64-.7 5.63-2.63 8.44l-2.2 3.19 2.07 3.73c1.14 2.05 6.9 12.04 12.8 22.2s11.28 19.52 11.93 20.8c1.37 2.67.83 2.63 13.92.87m286.7-7.83c2.8-4.84 9.22-15.72 14.27-24.16 5.06-8.44 9.2-15.6 9.2-15.9s-.84-1.75-1.85-3.21c-5.19-7.45-4.72-20.47.98-27.28 4.12-4.92 10.16-7.73 18.03-8.38l4.6-.38 4.18-9.28c2.3-5.1 11.9-25.42 21.35-45.15a3540 3540 0 0 0 19.6-41.38l2.43-5.5-2.35-2.44c-3.95-4.08-6.98-6.22-8.74-6.17-.9.03-12.92 4.48-26.7 9.9a4195 4195 0 0 1-42.67 16.53c-36.77 13.9-34.89 12.97-35.5 17.61-.24 1.77-1.55 5.32-3.02 8.2-4.5 8.75-11.12 12.84-20.81 12.84-4.38 0-5.23-.23-10.4-2.74l-5.63-2.74-20.28 13.71c-11.15 7.55-21.51 14.9-23.02 16.33l-2.74 2.61.4 4.32c.22 2.38 1.37 9.56 2.54 15.95 1.18 6.4 2.48 14.36 2.9 17.71.82 6.74 1.28 7.35 4.45 5.83 1.07-.52 14.75-8.53 30.4-17.8 40.3-23.88 80.06-47.26 82.38-48.46 2.95-1.51 3.33-1.3 2.4 1.3-1.7 4.81-19.42 38.61-28.63 54.59-3.84 6.65-22.18 40.57-28.77 53.18-2.4 4.6-4.9 9.14-5.58 10.1s-1.08 1.86-.91 2.03c.76.77 35.55 6.86 39.83 6.98l2.58.07zm-226.36-2.36c5.25-1.06 9.64-2.01 9.76-2.13.3-.3-62.54-64-63.14-64-.53 0 1.98 4.84 17.63 34.01a1543 1543 0 0 1 13.94 26.51l4.15 8.26 4.06-.37c2.23-.2 8.35-1.23 13.6-2.28m165.53 1.13c1.9-2.1 3.49-4.8 13.8-23.66l12.53-22.88c3.06-5.57 9.82-18.63 10.25-19.8.32-.87-45.45 44.76-54.46 54.3-4.1 4.34-7.32 8.05-7.13 8.23.75.75 19.54 5.07 22.46 5.16.7.02 1.85-.59 2.55-1.35m24.5-73.3c-1.85-.3-4.75 1.26-25.59 13.8a2299 2299 0 0 1-22.23 13.25c-11.87 6.79-13.26 7.78-13.87 9.9-.59 2.05-.05 8.7 1.56 19.43l.74 4.88 30.37-30.52c24.73-24.86 30.12-30.57 29.03-30.74m-170.66 53.66c1.14-5.62 1.93-15.38 1.4-17.46-.29-1.17-2.45-2.69-9.5-6.66a1553 1553 0 0 1-27.44-16.12c-16.23-9.73-25.21-14.8-26.22-14.8-1.54 0 3.02 4.88 25.5 27.25 28.8 28.68 34.1 33.69 34.81 32.94.28-.28.93-2.6 1.45-5.15m197.65-53.33c1.71-2.12 3.12-4.39 3.12-5.04 0-.64.46-1.51 1.03-1.93 1.3-.95.66-2.78-.97-2.78-.69 0-1.4.56-1.62 1.28-.4 1.22-.47 1.23-1.6.21s-1.17-1-1.17.58c0 .9-.28 1.64-.62 1.64s-.62-.54-.62-1.19c0-1.84-.67-3.14-1.61-3.14-.48 0-.86-.58-.86-1.29 0-.76-.32-1.18-.78-1.01-1.06.37-.66 3.06.6 4 .96.72.96.77-.01.77-1.15 0-3.52 2.1-3.52 3.11 0 .35.7.9 1.54 1.22.85.33 1.55.89 1.55 1.25 0 .37.73 1.35 1.63 2.18 1.25 1.16 1.4 1.52.62 1.52-.6 0-1.01.5-1.01 1.24 0 2.05 1.02 1.42 4.3-2.62m-9.33-7.44c.72 1.29 1.07 1.03 1.63-1.2.36-1.44.2-1.73-1.14-2.07-2.33-.58-3.7.13-4.81 2.5-1.3 2.79-.82 3.14 1.68 1.23 1.88-1.43 2.08-1.47 2.64-.46m-5.49-3.32c0-2.55.1-2.7 1.73-2.7 1.67 0 3.22-.96 3.22-1.98 0-.27-.46-.5-1.03-.5s-.82-.2-.56-.46 1.04-.47 1.74-.47c1.98 0 2-1.43.05-2.3-.96-.42-1.91-.99-2.11-1.27s-.72-.07-1.16.45a3.4 3.4 0 0 1-2.33.96c-1.12 0-1.44.26-1.18.94.28.71.04.85-1.03.58-1.63-.4-4.93 1.63-6.87 4.25-1.29 1.74-1.29 1.75-.06 2.65.67.5 1.92.84 2.78.77s2.47.1 3.58.37c1.7.42 1.96.7 1.61 1.8-.36 1.16-.3 1.21.6.47.66-.55 1.02-1.8 1.02-3.56m16.6-1.1c.18-.93 0-1.07-.92-.68-.63.27-1.63.51-2.23.54-.6.02-1.08.21-1.08.42 0 1.7 3.9 1.44 4.23-.27m3.37-.44c-1.04-1.04-2.28-.05-1.35 1.08.52.63.95.7 1.4.26.44-.45.43-.86-.05-1.34m-98.47-30.3c4.57-3.1 14.05-9.65 21.06-14.56l12.76-8.9.26-7.36c.24-6.79.41-7.63 2.22-11.07l1.95-3.73-7.56-10.4a1390 1390 0 0 1-14.01-19.67c-3.55-5.1-11.6-16.38-17.9-25.05-23.53-32.43-23.83-32.79-27.48-32.77-4.1.02-4.3-2.64 3.5 44.3 3.96 23.76 7.74 46.82 8.42 51.24s2.05 12.36 3.06 17.65a305 305 0 0 1 2.48 14.53c.8 6.38 1.9 11.42 2.48 11.42.25 0 4.2-2.53 8.76-5.63m-88.81 1.76c.46-1.12 1.45-6.06 2.18-10.98s3.12-18.92 5.3-31.1 4.4-25.4 4.96-29.38 1.94-12.28 3.09-18.46a421 421 0 0 0 3.06-18.86c.53-4.2 1.65-11.71 2.49-16.69 1.94-11.6 1.94-12.28.01-12.28-3 0-6 3.46-24.26 28.15-9.72 13.13-43.91 60.26-44.94 61.95-.25.41.39 1.92 1.46 3.45 1.95 2.77 2.57 5.53 3.41 15.36l.35 4.09 11.25 7.64c15.17 10.32 28.97 19.13 29.97 19.13.45 0 1.2-.91 1.67-2.02m-215.3-73.95c2.96-1.32 6.54-5.06 8.51-8.89 3-5.8 1.98-17.51-1.93-22.25-2.21-2.69-7.9-5.73-12.45-6.66-6.72-1.36-14.52 1.68-19.09 7.46-3.2 4.06-3.9 6.59-3.6 13.28.26 6.24 1.17 8.62 4.88 12.84 3.94 4.47 8.76 6.11 16.56 5.64 2.5-.15 5.7-.8 7.11-1.42m525.88.45c3.43-1.06 4.84-1.91 7.4-4.49 4.4-4.42 6.01-8.86 5.67-15.55-.4-7.9-3.55-12.59-11-16.4-4.17-2.15-11.5-2.4-16.31-.59-15.2 5.73-17.2 26.73-3.4 35.58 4.7 3.02 10.9 3.52 17.64 1.45" style="fill:#35cbbe;fill-opacity:1;stroke-width:.618468" transform="scale(.265)"/><path d="M546.73 240.08c-.51-.4-.93-1.14-.93-1.63 0-.5-.7-1.07-1.55-1.29l-1.54-.38 1.45-.48c.87-.29 1.72-.2 2.13.2 1.07 1.07 1.85.8 1.5-.53-.27-1.02.1-1.27 2.45-1.62 1.76-.26 3.02-.16 3.46.28.51.52.35.7-.63.7-1.66 0-2.34 1.02-1.42 2.13.94 1.13-.17 1.82-2.13 1.33-1.14-.29-1.52-.1-1.67.82-.16.97-.37 1.06-1.12.47M428.9 382.05c-2.49-1.4-8.94-1.52-9.01-.17-.03.52-.58-.2-1.23-1.6-.92-2-1.6-2.63-3.14-2.94l-1.97-.4 1.4-1.48c1.05-1.13 1.3-1.93 1.01-3.25-.35-1.62-.24-1.75 1.5-1.75 1.02 0 1.86.21 1.86.47 0 .25.43.46.95.46s1.1.42 1.3.93c.55 1.43 2.7 1.16 2.7-.35 0-.7.27-1.1.6-.9s.44.73.26 1.2c-.2.5.28.97 1.25 1.22.86.21 1.86.94 2.22 1.62.88 1.64 1.85 1.56 1.87-.16.02-1.3.07-1.31.69-.25.47.82.47 1.33-.02 1.82-1.02 1.02-.83 2.56.53 4.29 1.91 2.43.5 3.07-2.76 1.24m-4.99-3.45c-.43-1.12-3.13-2.07-3.84-1.36-.24.24.36 1.13 1.34 1.97 1.86 1.6 3.22 1.27 2.5-.6" style="fill:#35cbbe;fill-opacity:1;stroke-width:.618468" transform="scale(.265)"/><path d="M427.21 381.35c-1.8-.61-2.94-1.36-2.94-1.95 0-1.38-1.27-2.44-2.9-2.44-1.84 0-1.87 1.57-.06 2.54l1.37.73-1.46.54c-.8.3-1.5.47-1.56.37-1.48-2.55-2.5-3.62-3.74-3.93-1.42-.36-1.46-.47-.6-1.7.5-.71.9-2.08.9-3.02 0-2.1 1.3-2.25 4.2-.48 2.3 1.4 3.84 1.6 3.87.46 0-.43.3-.29.65.31.34.6 1.03 1.08 1.52 1.08s1.24.56 1.66 1.24c.43.68 1.13 1.24 1.55 1.24.44 0 .78.75.78 1.72 0 .94.44 2.33.97 3.09.89 1.27.87 1.37-.16 1.28-.61-.05-2.44-.53-4.05-1.08M410.04 376.96c-.5-.33-2.04-.61-3.4-.62-3.7-.03-4.35-.65-3.15-2.97a9 9 0 0 1 2.36-2.87c1.3-.9 1.41-.88 1.89.4.28.76.63 1.5.77 1.64.55.55 2.15-1.36 2.2-2.62.05-1.42.25-1.04.84 1.62.2.94.79 1.7 1.29 1.7 1.14 0 1.13.6-.01 2.1-.5.65-.74 1.42-.56 1.7.44.72-1.08.66-2.23-.08" style="fill:#35cbbe;fill-opacity:1;stroke-width:.618468" transform="scale(.265)"/><path d="M111.04 100.16c1.36-.06 2.7.1 4.05.32.25.05 1.03.2 1.3.32.15.06.54.33.4.26l-3.12-1.73q.06.07.1.17-.02.1-.06.2a2.3 2.3 0 0 1-1.3.86c-.44.08-.88.07-1.32.07-.5 0-.99-.04-1.48.02-.04.33-.3-.16-.22-.12 1.14.66 2.21 1.43 3.37 2.06.07.03.1-.12.14-.18.16-.2.28-.32.46-.5q.75-.75 1.54-1.43c.31-.23.45-.6.7-.87-.03 1.42.04.02-3.37-1.72-.05-.03.06.12.08.18l.01.29c0 .27-.05.38-.1.64q-.17.8-.58 1.5c-.94 1.25.98.98 3.4 2.2.03.03.57-.42.62-.46.44-.4.95-.76 1.29-1.25.36-1.58.17-.4-3.48-2.35-.1-.05-.2.03-.31.04l-.45.03c-1.9.14.82-.04-1.51.11-2.04.14-4.08.29-6.12.28q-.27 0-.53-.02-.15-.03-.31-.09 1.65.9 3.3 1.83c.01 0-.07.03-.07 0q0-.05.06-.08l.13-.15c.38-.29.75-.59 1.18-.8.28-.22.6-.37.88-.57.34-.3.74-.48 1.15-.64.1-.05.74-.37.8-.3.04.03.05.19 0 .16-1.12-.62-2.2-1.32-3.32-1.98 0 .58-.34 1.11-.62 1.6-.29.53-.53 1.08-.81 1.62.07-.2-.2.39-.2.28.02-1.33 3.4 1.68 3.42 1.7.08.04.01-.2.03-.29l.1-.39q.49-1.35 1.22-2.6l-3.42-1.96q-.72 1.29-1.27 2.68-.07.2-.12.41c-.03.11-.17.26-.08.33 2.1 1.75 2.78 3.47 3.76 1.8q.4-.8.8-1.6c.33-.58.65-1.17.77-1.83-3.64-2.45-2.28-2.74-4.36-1.84q-.63.28-1.19.7-.44.27-.87.55a9 9 0 0 0-1.24.92c-.06.07-.58.68-.43.79 2.46 1.69 2.51 2.1 4.4 2.06 2.04-.06 4.08-.2 6.11-.3l1.56-.08h.45c.1 0 .35.1.27.05-3.14-2.1-4.38-1.47-3.11-2.08-.3.47-.81.79-1.22 1.16-.2.15-.2.17-.42.29-.05.03-.23.05-.17.1 4.4 3.15 2.57 3.19 3.38 1.95q.42-.76.6-1.6.15-.53.18-1.06c0-.1.08-.25 0-.3-3.37-2.31-2.47-2.97-3.68-1.97-.22.28-.38.61-.66.84q-.79.72-1.55 1.46c-.06.07-.7.73-.66.76 4.2 3.66 1.83 2.48 3.52 2.35q.73-.02 1.47 0c.46 0 .94-.02 1.38-.17.6-.25 1.14-.62 1.49-1.18q.1-.18.14-.37c.3-1.6-3.37-2.5-3.6-2.65-.52-.31-1.18-.3-1.75-.45-1.37-.2-2.75-.33-4.13-.3zM148.2 69a46 46 0 0 1 1.94-2.17 10 10 0 0 0 1.43-2.18q.28-.46.37-1 .02-.3.08-.61l-3.5-1.88q-.1.3-.1.63-.05.49-.3.9a9 9 0 0 1-1.35 2.08q-.99 1.1-1.96 2.2z" style="fill:#35cbbe;fill-opacity:.94902;stroke-width:.264583"/><path d="M146.75 66.97q.99-.79 2.04-1.5.57-.39 1-.91.22-.21.4-.44l-3.4-2.06q-.19.23-.41.46-.42.46-.93.82-1.03.75-2.05 1.52z" style="fill:#35cbbe;fill-opacity:.94902;stroke-width:.264583"/><path d="M145.6 65.72q1.03-.74 2.1-1.48.45-.38.95-.71c0 .02.02.08 0 .07-3.47-1.95-2.7-2.89-4.46-1.37q-.54.47-1.1.92c-.32.24-.55.56-.92.73-.2.16-.45.26-.66.4l3.34 2.16q.33-.19.65-.39c.35-.22.63-.53.96-.79l1.1-.93q.3-.27.63-.5c.08-.05.33-.09.26-.16-2.88-2.6-2.13-3.25-3.16-2.29q-.47.36-.93.73c-.7.49-1.36 1.03-2.1 1.46z" style="fill:#35c9b4;fill-opacity:1;stroke-width:.264583"/><circle cx="334.47" cy="143.51" r=".02" style="fill:#35c9b4;stroke:#000;stroke-width:.264583"/></g></svg>